<svg xmlns="http://www.w3.org/2000/svg" width="305.508" height="75.047" viewBox="0 0 305.508 75.047">
  <title>full-logo_dark</title>
  <g>
    <path d="M44.72,15.577A27.722,27.722,0,0,0,.03,37.527L0,75.047H7v-9.77H27.78a27.726,27.726,0,0,0,21.9-44.76A26.976,26.976,0,0,0,44.72,15.577ZM48,32.907v0H37.286l0,0,7.39-7.39A20.373,20.373,0,0,1,48,32.907ZM46.949,45.47H24.727l5.559-5.559h18.1a20.325,20.325,0,0,1-1.439,5.556ZM39.72,20.577,32.3,28V17.276h0A20.473,20.473,0,0,1,39.72,20.577ZM25.3,16.938V35l-5.557,5.557V18.4h0A20.353,20.353,0,0,1,25.3,16.938ZM7.03,37.527a20.646,20.646,0,0,1,5.709-14.269v24.3L7.03,53.267Zm4.89,20.75,5.807-5.807h24.43A20.67,20.67,0,0,1,27.78,58.277Z" fill="#fff"/>
    <rect x="66.274" width="7" height="65.248" fill="#fff"/>
    <path d="M132.393,37.509a20.739,20.739,0,1,1-41.478,0V9.77h-7V37.509a27.739,27.739,0,1,0,55.478,0V9.77h-7Z" fill="#fff"/>
    <path d="M240.537,37.509a20.739,20.739,0,1,1-41.477,0V9.77h-7V37.509a27.739,27.739,0,1,0,55.477,0V9.77h-7Z" fill="#fff"/>
    <path d="M157.087,37.509V16.77h24.238v-7H157.087V0h-7V37.509a27.77,27.77,0,0,0,27.739,27.739h3.5v-7h-3.5A20.763,20.763,0,0,1,157.087,37.509Z" fill="#fff"/>
    <path d="M302.008,9.77a27.77,27.77,0,0,0-27.739,27.739,20.763,20.763,0,0,1-20.74,20.739h-3.5v7h3.5a27.771,27.771,0,0,0,27.74-27.739A20.762,20.762,0,0,1,302.008,16.77h3.5v-7Z" fill="#fff"/>
  </g>
</svg>
