<svg id="Layer_1" data-name="Layer 1" xmlns="http://www.w3.org/2000/svg" viewBox="0 0 305.51 75.05"><defs><style>.cls-1{fill:#2ad196;}</style></defs><title>full-logo_light_new</title><path class="cls-1" d="M44.72,15.58A27.72,27.72,0,0,0,0,37.53L0,75.05H7V65.28H27.78a27.73,27.73,0,0,0,21.9-44.76A26.67,26.67,0,0,0,44.72,15.58ZM48,32.91H37.29l7.39-7.39A20.32,20.32,0,0,1,48,32.91ZM47,45.47H24.73l5.56-5.56h18.1A20.62,20.62,0,0,1,47,45.47ZM39.72,20.58,32.3,28V17.28h0A20.33,20.33,0,0,1,39.72,20.58ZM25.3,16.94V35l-5.56,5.56V18.4h0A20.29,20.29,0,0,1,25.3,16.94ZM7,37.53a20.64,20.64,0,0,1,5.71-14.27v24.3L7,53.27Zm4.89,20.75,5.81-5.81H42.16a20.7,20.7,0,0,1-14.38,5.81Z"/><rect class="cls-1" x="66.27" width="7" height="65.25"/><path class="cls-1" d="M132.39,37.51a20.74,20.74,0,1,1-41.47,0V9.77h-7V37.51a27.74,27.74,0,1,0,55.47,0V9.77h-7Z"/><path class="cls-1" d="M240.54,37.51a20.74,20.74,0,0,1-41.48.29v-28h-7V37.51a27.74,27.74,0,0,0,55.48.33V9.77h-7Z"/><path class="cls-1" d="M157.09,37.51V16.77h24.24v-7H157.09V0h-7V37.51a27.77,27.77,0,0,0,27.74,27.74h3.5v-7h-3.5A20.76,20.76,0,0,1,157.09,37.51Z"/><path class="cls-1" d="M302,9.77a27.78,27.78,0,0,0-27.74,27.74,20.76,20.76,0,0,1-20.74,20.74H250v7h3.5a27.78,27.78,0,0,0,27.74-27.74A20.76,20.76,0,0,1,302,16.77h3.5v-7Z"/></svg>