<svg id="Layer_1" data-name="Layer 1" xmlns="http://www.w3.org/2000/svg" viewBox="0 0 55.53 65.27"><defs><style>.cls-1{fill:#2ad196;}</style></defs><title>logomark_light_new</title><path class="cls-1" d="M44.72,5.8A27.72,27.72,0,0,0,0,27.75L0,65.27H7V55.5H27.78a27.73,27.73,0,0,0,21.9-44.76A26.67,26.67,0,0,0,44.72,5.8ZM48,23.13H37.29l7.39-7.39A20.4,20.4,0,0,1,48,23.13ZM47,35.69H24.73l5.56-5.56h18.1A20.52,20.52,0,0,1,47,35.69ZM39.72,10.8,32.3,18.22V7.5h0A20.49,20.49,0,0,1,39.72,10.8ZM25.3,7.16V25.22l-5.56,5.56V8.62h0A20.29,20.29,0,0,1,25.3,7.16ZM7,27.75a20.68,20.68,0,0,1,5.71-14.27v24.3L7,43.49ZM11.92,48.5l5.81-5.81H42.16A20.7,20.7,0,0,1,27.78,48.5Z" transform="translate(0 0)"/></svg>